<?xml version="1.0" standalone="no"?>

<svg version="1.0" xmlns="http://www.w3.org/2000/svg"
 width="360" height="360" viewBox="0 0 3601.000000 3600.000000"
 preserveAspectRatio="xMidYMid meet">

<g transform="translate(0.000000,3600.000000) scale(0.100000,-0.100000)"
fill="#fff" stroke="none">
<path d="M10169 25920 c-20 -3 -57 -19 -83 -34 -52 -30 -175 -48 -198 -28 -19
15 -110 40 -128 35 -8 -3 -25 -9 -37 -15 -18 -9 -27 -8 -41 5 -10 10 -28 17
-39 17 -12 0 -23 5 -25 12 -3 7 -25 -3 -57 -25 -37 -26 -64 -37 -90 -37 -20 0
-42 -4 -50 -9 -10 -7 -22 -4 -38 8 -29 24 -196 46 -261 36 -26 -4 -81 -8 -123
-9 -46 0 -82 -6 -92 -14 -10 -9 -65 -15 -169 -19 -98 -3 -162 -10 -178 -18
-14 -8 -57 -25 -96 -40 -40 -14 -79 -34 -89 -45 -12 -13 -25 -17 -45 -14 -16
4 -40 -1 -58 -10 -17 -9 -44 -16 -60 -16 -26 0 -101 -44 -116 -68 -3 -6 -24
-20 -47 -31 -34 -18 -51 -21 -101 -15 -54 6 -61 10 -70 34 -9 26 -44 50 -73
50 -7 0 -26 -11 -42 -23 -22 -19 -34 -22 -57 -16 -17 5 -65 7 -109 6 l-78 -2
-29 35 c-16 19 -30 45 -30 58 0 13 -14 37 -30 54 -30 30 -32 30 -98 23 -81 -9
-97 -16 -118 -58 -37 -73 -144 -244 -164 -262 -12 -11 -28 -32 -36 -47 -17
-32 -114 -80 -234 -115 -103 -30 -143 -50 -196 -100 -23 -21 -60 -53 -82 -70
-29 -24 -47 -49 -62 -90 -14 -39 -39 -76 -75 -113 -65 -68 -78 -92 -101 -199
-14 -70 -15 -91 -6 -128 l12 -44 -59 -73 c-77 -94 -118 -129 -194 -167 -34
-18 -80 -46 -102 -64 -79 -64 -132 -83 -270 -95 l-89 -7 -40 -44 c-44 -50
-132 -180 -141 -211 -5 -13 -38 -34 -99 -63 -83 -39 -136 -80 -136 -107 0 -5
-15 -33 -34 -62 -54 -85 -69 -117 -81 -176 -11 -50 -16 -58 -67 -95 -111 -80
-200 -157 -210 -183 -20 -51 -38 -87 -68 -137 -16 -27 -33 -57 -36 -65 -14
-31 -55 -80 -68 -80 -19 0 -61 -50 -89 -105 -29 -58 -87 -251 -87 -288 0 -28
41 -67 71 -67 10 0 20 -9 24 -19 3 -11 15 -23 25 -26 31 -10 35 -43 10 -70
-22 -23 -47 -95 -57 -162 -4 -22 3 -44 21 -75 33 -57 45 -170 26 -260 -7 -35
-37 -111 -65 -169 -55 -112 -75 -167 -94 -260 -20 -95 -73 -163 -171 -216 -50
-28 -65 -62 -46 -107 9 -21 24 -38 38 -41 15 -5 33 -26 51 -63 27 -54 28 -61
18 -117 -20 -115 -31 -277 -21 -314 5 -20 25 -53 45 -74 38 -41 43 -58 20 -77
-8 -7 -15 -21 -15 -31 0 -10 -4 -21 -10 -24 -6 -3 -10 -22 -10 -41 0 -29 9
-44 49 -85 41 -42 54 -49 87 -49 22 0 56 9 76 20 l37 20 27 -25 c15 -14 32
-35 38 -48 7 -13 23 -23 39 -25 20 -3 27 -9 27 -25 0 -23 93 -127 143 -160 20
-14 26 -24 22 -38 -4 -11 -4 -38 0 -60 7 -40 8 -41 41 -35 29 6 35 4 48 -23
24 -46 16 -223 -12 -278 -28 -53 -27 -55 4 -43 41 16 51 12 58 -25 7 -35 46
-75 74 -75 8 0 29 -9 46 -19 17 -10 66 -33 108 -51 57 -23 86 -42 108 -69 16
-21 51 -53 77 -71 26 -18 57 -47 68 -64 13 -19 37 -36 69 -48 38 -13 76 -44
181 -147 l132 -130 166 -80 c92 -45 179 -81 194 -81 16 0 57 14 93 31 107 51
286 119 337 128 26 5 116 15 200 21 142 11 159 11 265 -10 62 -11 127 -24 143
-27 17 -3 49 -16 72 -29 23 -13 58 -24 78 -24 38 0 99 22 125 44 8 7 50 21 93
30 48 11 120 39 190 74 101 50 120 56 193 61 84 6 116 21 129 61 12 39 228 70
481 70 164 0 192 -7 242 -64 36 -41 91 -145 124 -234 28 -75 96 -145 158 -162
49 -13 98 -10 275 16 61 9 141 19 180 23 73 7 135 -5 135 -26 0 -23 52 -72 94
-88 29 -11 48 -27 59 -48 9 -18 25 -43 36 -57 18 -24 19 -29 6 -90 -8 -36 -15
-91 -15 -123 0 -51 -5 -65 -44 -125 -54 -81 -64 -114 -43 -146 12 -18 13 -26
4 -35 -7 -7 -15 -58 -18 -119 -9 -136 -13 -146 -53 -137 -55 12 -58 11 -73
-30 -17 -50 -12 -73 36 -155 21 -36 53 -99 70 -141 38 -91 133 -214 221 -284
92 -74 319 -328 371 -415 35 -60 43 -83 41 -112 -3 -25 3 -47 15 -65 11 -16
25 -54 32 -85 8 -39 26 -76 55 -115 24 -33 54 -92 70 -138 15 -44 46 -116 67
-159 l40 -79 -25 -26 c-34 -37 -46 -65 -46 -104 0 -50 66 -220 119 -307 l46
-75 -3 -109 c-3 -131 -15 -164 -75 -205 -51 -35 -87 -76 -87 -100 0 -8 -21
-37 -46 -63 -49 -49 -47 -44 -74 -203 -7 -38 -23 -109 -36 -158 -13 -48 -27
-105 -30 -127 -4 -26 -15 -45 -30 -55 -28 -18 -40 -72 -27 -124 8 -29 7 -42
-4 -57 -11 -14 -13 -31 -7 -64 4 -25 7 -85 6 -135 -3 -142 32 -238 123 -337
40 -42 77 -105 155 -260 125 -247 204 -382 276 -472 62 -77 71 -101 54 -150
-8 -26 -9 -50 -1 -88 6 -29 9 -89 8 -133 -2 -73 1 -87 31 -150 26 -54 37 -95
47 -176 8 -59 25 -141 39 -183 14 -42 26 -87 26 -101 0 -37 44 -145 91 -227
27 -47 76 -107 136 -166 105 -105 128 -143 203 -343 57 -151 82 -198 155 -297
36 -49 57 -89 64 -123 15 -68 15 -67 -19 -74 -57 -13 -79 -108 -40 -173 11
-18 20 -41 20 -51 0 -19 24 -44 52 -54 14 -5 15 -10 5 -36 -16 -42 5 -118 40
-149 20 -19 33 -22 57 -18 57 12 78 7 112 -28 68 -70 175 -84 253 -33 49 33
102 47 176 47 80 0 128 15 170 52 l35 30 89 -7 c60 -5 96 -3 110 4 24 13 126
-2 173 -25 15 -8 47 -14 72 -14 35 0 49 5 63 23 14 18 24 22 38 16 40 -15 104
-10 125 11 11 11 20 26 20 33 0 10 16 12 63 9 72 -4 119 12 227 82 116 75 315
232 370 292 28 32 82 79 119 105 95 67 185 179 332 418 33 55 104 118 169 151
46 23 90 73 111 125 24 59 89 252 103 310 23 89 37 218 27 253 -8 28 -7 34 12
47 37 24 159 71 258 100 122 35 168 62 229 136 57 68 54 59 54 159 1 55 7 90
25 134 20 48 22 64 14 86 -7 20 -7 42 0 74 7 32 7 53 0 69 -7 15 -8 29 -2 38
5 8 9 42 9 76 0 55 -3 64 -26 82 -15 12 -34 21 -43 21 -13 0 -16 11 -16 59 0
51 -4 64 -27 88 -27 28 -36 66 -20 89 4 6 21 19 39 27 17 9 62 50 99 91 56 62
73 75 107 80 34 6 51 19 111 84 122 133 173 177 258 224 135 76 127 79 207
-97 191 -423 421 -711 736 -918 217 -142 491 -232 810 -267 373 -40 1289 -37
1630 5 382 47 626 140 892 339 442 330 769 964 877 1701 129 874 -128 1840
-644 2421 -177 200 -446 376 -705 462 -267 89 -611 122 -1255 122 -788 0
-1131 -51 -1462 -214 -107 -53 -107 -53 -84 -22 13 17 39 58 59 91 42 70 340
387 470 499 l88 76 949 0 950 0 0 30 0 30 -172 0 c-95 0 -264 3 -375 7 l-203
6 0 714 0 713 34 44 c19 25 42 69 51 98 9 29 27 69 39 88 40 64 48 94 54 187
l5 91 32 6 c43 8 60 30 60 78 0 32 -6 45 -27 62 -35 27 -47 111 -29 189 9 37
10 60 2 79 -21 56 -112 88 -181 64 -39 -13 -40 -13 -40 10 l0 24 203 0 c581
-1 760 -80 969 -429 117 -197 172 -358 185 -538 l6 -93 29 0 28 0 0 1090 0
1090 -30 0 -30 0 0 -61 c0 -73 -33 -239 -61 -311 -71 -180 -199 -390 -298
-489 -161 -161 -311 -199 -773 -199 l-228 0 0 1160 0 1160 343 0 c386 0 644
-12 762 -35 235 -45 427 -155 582 -335 89 -103 231 -319 291 -443 97 -201 130
-342 139 -610 l6 -178 31 3 31 3 3 828 2 827 -2225 0 -2225 0 0 -30 0 -30 315
0 315 0 0 -1114 c0 -1092 0 -1114 -19 -1109 -23 6 -61 40 -61 54 0 17 -83 100
-127 126 -26 15 -58 47 -80 80 -28 43 -48 60 -82 75 -92 38 -134 64 -185 115
-37 36 -63 53 -90 58 -20 4 -39 5 -43 2 -10 -10 -83 110 -83 137 0 33 -64 225
-97 291 -37 72 -70 112 -122 148 -25 17 -63 50 -84 74 -24 26 -53 47 -77 54
-34 10 -41 18 -55 58 -21 61 -55 286 -55 366 0 56 -4 69 -37 116 -25 38 -39
71 -44 109 -6 47 -13 60 -44 85 -20 17 -60 49 -88 73 -28 23 -69 50 -90 60
-29 13 -45 29 -64 66 -18 36 -22 51 -13 54 23 8 50 42 50 62 0 35 -26 75 -77
116 -61 49 -67 57 -104 129 -17 33 -41 74 -54 90 -12 17 -30 46 -40 65 -9 19
-36 60 -59 90 -40 54 -116 202 -116 228 0 7 -7 26 -15 42 l-15 29 40 11 c55
15 80 56 80 131 0 31 9 91 20 135 48 182 46 226 -14 349 -19 39 -51 108 -71
155 -21 47 -45 91 -53 98 -22 17 -95 15 -136 -5 -29 -13 -40 -14 -61 -5 -36
16 -81 15 -120 -4 -31 -14 -36 -14 -74 5 -22 12 -48 30 -58 40 -24 26 -66 35
-92 21 -17 -8 -33 -7 -75 6 -54 17 -55 17 -133 -10 -91 -32 -171 -75 -230
-122 -46 -38 -63 -41 -98 -18 -13 9 -53 18 -87 21 -63 5 -153 30 -217 60 -19
8 -66 20 -105 25 -39 5 -98 14 -132 19 -44 8 -73 7 -104 -1 -23 -6 -43 -10
-45 -8 -1 2 -10 18 -19 35 -27 53 -55 66 -138 62 -55 -3 -81 1 -105 14 -18 10
-53 20 -78 24 -38 5 -45 9 -45 28 0 38 -31 61 -120 90 -153 51 -296 35 -462
-52 -88 -46 -142 -105 -163 -177 -15 -51 -15 -61 -1 -110 9 -30 21 -58 26 -61
20 -12 9 -37 -40 -85 -62 -63 -83 -64 -166 -4 -35 25 -90 58 -122 73 -79 40
-215 81 -265 81 -102 1 -160 34 -177 102 -6 21 -14 55 -20 76 -14 54 -49 83
-112 93 -29 5 -84 24 -123 43 -38 19 -104 42 -146 52 -71 15 -94 15 -175 -1
-23 -5 -45 1 -96 28 -36 19 -84 38 -106 42 -39 6 -40 7 -53 67 -16 73 -38 104
-79 113 l-31 7 58 62 c56 60 83 113 83 165 0 52 -24 114 -56 145 l-34 33 21
19 c119 105 131 207 31 254 -31 15 -55 20 -77 16 -22 -4 -36 -2 -44 8 -21 25
-135 47 -192 36z m105 -71 c42 -10 44 -12 55 -65 13 -58 16 -61 46 -40 11 7
35 17 53 21 32 7 33 8 17 25 -16 18 -16 18 4 13 26 -7 45 -38 35 -56 -23 -37
-73 -91 -96 -103 -23 -12 -28 -21 -28 -50 0 -30 8 -43 41 -74 34 -31 42 -46
46 -83 3 -25 3 -57 -1 -70 -9 -38 -82 -113 -141 -147 -63 -36 -75 -62 -51
-109 29 -55 91 -68 111 -23 12 26 42 29 48 5 3 -10 11 -40 17 -68 16 -63 34
-83 79 -91 20 -3 74 -24 120 -47 80 -39 85 -40 127 -29 24 7 57 12 72 12 54 0
159 -28 217 -58 33 -17 83 -36 110 -43 75 -17 78 -20 92 -90 26 -129 79 -169
249 -187 113 -13 232 -60 344 -137 93 -63 133 -74 184 -50 45 21 132 115 138
149 3 13 -5 48 -18 78 -28 65 -29 91 -5 144 22 49 63 82 151 123 146 68 262
76 390 28 57 -22 65 -28 71 -57 9 -44 18 -50 82 -59 30 -4 67 -16 83 -26 23
-15 40 -17 100 -11 81 6 82 6 118 -59 20 -36 26 -40 56 -38 142 10 299 -4 366
-32 91 -38 182 -63 229 -64 33 0 58 -7 77 -21 39 -28 77 -25 133 13 27 17 67
44 89 59 46 32 185 88 215 88 11 0 36 -8 56 -17 29 -14 41 -15 66 -6 26 10 35
8 82 -22 28 -18 63 -43 76 -55 26 -24 41 -21 93 21 26 21 27 21 73 4 45 -18
47 -18 98 3 29 12 57 22 63 22 5 0 27 -37 48 -82 21 -46 54 -114 73 -151 47
-91 52 -150 23 -252 -13 -44 -28 -120 -34 -169 -14 -110 -25 -120 -92 -88 -25
13 -49 21 -52 18 -2 -3 1 -19 8 -35 6 -17 9 -43 5 -60 -5 -22 -1 -35 14 -50
11 -11 25 -38 31 -60 17 -63 74 -177 118 -234 22 -29 51 -75 66 -104 14 -28
30 -54 36 -58 5 -3 28 -42 51 -86 29 -55 56 -92 87 -117 63 -52 84 -73 79 -79
-3 -2 -17 3 -31 12 l-26 17 0 -61 c0 -48 6 -74 30 -120 28 -56 70 -101 94
-101 6 0 43 -25 81 -56 39 -30 77 -60 86 -64 10 -6 18 -27 21 -58 3 -34 16
-65 41 -104 29 -43 37 -65 37 -99 0 -76 38 -321 60 -383 24 -71 42 -93 83
-102 18 -4 53 -28 83 -58 28 -28 72 -68 98 -89 67 -56 126 -181 166 -353 13
-55 30 -98 50 -125 16 -23 30 -50 30 -60 0 -21 46 -39 83 -32 31 6 73 -17 82
-46 6 -21 119 -92 177 -110 21 -7 48 -26 60 -43 36 -48 101 -111 147 -141 23
-15 50 -42 59 -59 31 -56 62 -86 105 -101 l42 -14 3 -1271 2 -1272 -315 0
-315 0 0 -30 0 -30 498 0 499 0 -219 -222 c-134 -137 -237 -250 -265 -293
-128 -195 -137 -205 -191 -205 -40 0 -40 0 -52 -50 -14 -57 -21 -64 -77 -79
-53 -15 -73 -34 -73 -74 -1 -44 -30 -101 -90 -172 -153 -181 -311 -468 -413
-750 -79 -216 -138 -461 -173 -720 -25 -184 -25 -627 0 -810 31 -230 81 -451
141 -624 14 -41 25 -75 25 -77 0 -1 -14 -4 -32 -8 -17 -3 -70 -27 -117 -53
-70 -39 -109 -70 -211 -174 -102 -104 -133 -129 -167 -138 -33 -9 -55 -27
-105 -82 -34 -39 -80 -80 -100 -90 -47 -24 -66 -53 -74 -113 -6 -44 -5 -49 26
-81 31 -32 33 -37 27 -86 -6 -45 -3 -59 19 -96 27 -47 38 -52 53 -25 8 13 10
8 11 -26 0 -36 -4 -45 -20 -49 -14 -4 -20 -14 -20 -33 0 -20 6 -31 20 -35 23
-7 26 -35 9 -84 -9 -25 -9 -38 0 -55 10 -18 8 -32 -10 -77 -16 -40 -21 -74
-21 -131 1 -74 0 -79 -35 -120 -55 -66 -86 -83 -251 -137 -145 -47 -245 -94
-271 -125 -9 -11 -9 -25 0 -59 15 -63 -11 -241 -50 -340 -16 -41 -36 -99 -44
-130 -24 -91 -59 -140 -124 -177 -82 -46 -156 -122 -207 -209 -96 -167 -208
-304 -296 -363 -25 -16 -74 -61 -110 -99 -74 -78 -306 -256 -418 -320 -77 -44
-81 -45 -207 -37 -38 3 -41 1 -50 -30 l-10 -34 -66 7 c-64 7 -67 6 -88 -21
l-22 -27 -62 21 c-98 33 -165 44 -189 31 -14 -8 -50 -9 -107 -5 -98 8 -127 1
-178 -44 -29 -26 -41 -30 -94 -30 -82 0 -190 -26 -230 -56 -36 -26 -94 -32
-132 -13 -12 6 -36 26 -54 45 -18 19 -41 34 -53 34 -13 0 -30 15 -49 45 -31
49 -41 49 -41 -1 0 -42 -17 -52 -32 -19 -9 20 -9 37 -1 67 14 51 3 84 -32 100
-14 6 -25 17 -25 25 0 7 -11 30 -25 51 -31 47 -25 82 14 82 41 0 51 18 51 86
0 81 -19 131 -80 212 -67 90 -103 160 -155 302 -69 185 -104 249 -175 310 -34
29 -81 79 -106 112 -62 80 -134 223 -134 266 0 19 -13 74 -30 121 -18 54 -33
123 -38 181 -7 77 -16 110 -46 175 -35 75 -37 84 -31 145 3 37 1 89 -6 118 -8
39 -8 65 0 96 15 60 0 104 -64 183 -71 89 -150 225 -274 470 -76 151 -116 217
-157 263 -93 104 -127 196 -111 303 7 48 5 72 -7 107 -14 42 -14 46 5 66 18
19 19 27 10 60 -17 62 -14 92 13 109 17 11 26 29 31 63 4 25 18 83 31 128 13
46 26 102 29 126 3 24 13 78 23 122 15 69 21 82 54 108 25 19 41 43 48 68 8
29 22 47 53 69 90 62 102 86 117 237 13 125 9 143 -60 259 -26 44 -62 122 -80
173 -31 90 -31 94 -14 120 9 15 28 37 41 49 12 12 23 31 23 41 0 11 -19 57
-43 103 -23 46 -55 122 -71 169 -17 50 -46 108 -69 139 -25 34 -47 79 -57 118
-10 34 -25 74 -34 87 -11 17 -12 27 -5 32 54 33 -179 343 -433 576 -119 109
-170 176 -212 275 -18 43 -50 105 -70 138 -43 71 -45 84 -11 77 56 -10 105 56
105 142 0 26 5 46 12 48 9 3 9 12 -1 36 -17 40 -8 62 24 62 24 0 25 2 22 47
-4 37 -9 48 -27 55 -27 10 -24 18 31 99 39 57 42 68 50 158 4 53 11 121 15
151 6 51 4 58 -25 94 -23 28 -31 49 -31 77 0 39 0 39 -40 39 -65 0 -97 22
-112 77 -13 46 -15 48 -47 45 -23 -3 -37 2 -46 15 -12 15 -17 16 -34 6 -12 -7
-39 -13 -61 -13 -23 0 -69 -6 -103 -14 -76 -18 -227 -36 -294 -36 -35 0 -60 7
-84 23 -35 23 -40 33 -128 217 -61 131 -116 192 -192 214 -96 29 -446 15 -612
-25 -87 -20 -104 -30 -109 -62 -3 -20 -11 -23 -80 -28 -68 -6 -94 -14 -205
-68 -77 -36 -157 -67 -202 -76 -40 -8 -84 -24 -98 -35 -14 -11 -41 -24 -59
-29 -30 -8 -43 -5 -90 20 -31 16 -66 29 -78 29 -11 0 -52 7 -91 15 -147 32
-192 34 -361 19 -183 -16 -238 -26 -292 -53 -21 -10 -66 -29 -102 -41 -36 -12
-91 -36 -122 -51 -32 -16 -67 -29 -79 -29 -12 0 -92 34 -178 76 -152 74 -159
78 -246 168 -125 129 -179 174 -225 186 -29 8 -40 16 -40 30 0 12 -16 30 -42
46 -24 15 -72 55 -108 89 -47 45 -82 68 -125 84 -33 12 -74 30 -91 40 -17 10
-47 24 -67 30 -43 15 -49 31 -11 31 21 0 25 3 18 18 -4 9 -9 31 -10 47 -1 17
-2 36 -3 43 0 7 -15 12 -33 12 -17 0 -28 3 -25 6 3 4 2 15 -4 26 -7 12 -7 24
-1 31 20 25 -17 187 -51 225 -17 18 -19 25 -9 31 10 6 -3 23 -44 60 -31 28
-69 58 -83 66 -37 19 -76 79 -95 148 -17 60 -25 67 -46 42 -12 -14 -18 -12
-51 21 -23 22 -40 50 -44 71 l-6 35 -27 -24 c-28 -25 -111 -68 -131 -68 -6 0
-11 9 -11 20 0 12 -10 25 -25 32 -29 13 -32 23 -10 32 13 4 14 10 5 26 -9 17
-7 20 15 25 14 3 36 7 50 10 l25 5 -35 31 c-21 19 -35 40 -35 55 0 13 -7 29
-16 36 -68 55 -66 49 -59 166 8 129 9 132 36 132 19 0 20 4 14 43 -9 61 -23
103 -61 184 -25 52 -40 72 -56 75 -33 5 -32 22 2 36 51 23 137 110 164 165 14
29 31 79 37 112 6 33 14 65 19 70 4 6 11 21 15 35 4 14 30 72 58 130 63 131
71 167 69 308 -2 103 -5 117 -27 150 -26 38 -32 76 -15 87 6 3 10 21 10 40 0
23 8 41 25 57 42 40 38 108 -9 153 -26 24 -36 44 -42 80 l-7 49 -23 -27 c-13
-15 -27 -27 -33 -27 -14 0 51 207 84 269 l30 54 137 27 c76 15 141 30 145 33
3 4 -37 7 -90 7 -54 0 -97 2 -97 5 0 2 25 48 56 102 32 54 61 112 66 130 5 18
23 42 41 55 18 12 57 43 87 68 30 26 71 57 91 69 40 23 69 73 69 115 0 29 23
80 74 159 18 29 37 63 41 75 5 18 32 36 106 70 l100 45 34 66 c20 36 58 96 86
134 48 64 53 67 92 67 120 0 256 45 327 107 19 17 67 46 106 66 80 40 133 88
222 201 63 79 73 108 50 146 -9 15 -9 36 1 97 16 97 29 123 100 198 41 43 61
73 71 108 11 40 22 55 64 86 28 21 60 48 71 61 28 31 64 48 180 86 143 46 167
56 199 82 16 12 32 22 37 22 4 0 11 9 14 21 4 12 22 38 41 58 18 21 65 91 104
157 74 124 80 130 153 133 22 1 27 -3 27 -23 0 -20 43 -89 82 -131 7 -8 111
-18 267 -26 13 0 36 8 50 19 l27 20 11 -29 c13 -35 36 -44 131 -53 64 -6 76
-5 101 13 16 12 35 21 43 21 7 0 30 18 51 40 30 32 44 40 73 40 20 0 49 8 65
17 26 16 30 16 46 1 21 -19 44 -11 83 32 14 15 52 37 85 50 33 12 67 25 76 30
9 5 90 11 180 15 111 4 166 10 171 18 7 12 72 17 258 20 99 1 170 -15 170 -38
0 -19 51 -26 76 -10 11 7 43 17 70 21 28 4 61 17 77 30 33 28 53 30 65 8 5 -8
28 -20 53 -25 39 -9 45 -8 57 9 11 17 18 19 50 10 20 -5 44 -18 53 -28 16 -18
21 -18 115 -4 69 10 110 22 135 38 55 37 93 43 163 25z m8527 -5428 c22 -18
22 -20 9 -74 -11 -48 -11 -69 1 -139 12 -69 18 -85 37 -93 30 -13 28 -25 -6
-25 -57 0 -65 -16 -72 -143 -6 -101 -10 -121 -32 -154 -14 -21 -36 -68 -49
-103 l-24 -65 -3 380 -3 380 31 28 c36 32 78 35 111 8z m-60 -2935 c208 -105
321 -287 424 -681 115 -437 149 -843 149 -1765 0 -922 -34 -1328 -149 -1765
-102 -392 -216 -577 -420 -679 l-52 -27 -255 3 -254 3 -58 35 c-170 101 -264
239 -356 520 -98 296 -153 634 -182 1110 -16 270 -16 1349 1 1610 43 683 156
1172 332 1431 73 107 213 212 306 229 26 5 140 8 253 7 204 -2 206 -2 261 -31z"/>
<path d="M11737 22964 c-4 -4 -7 -17 -7 -29 0 -18 9 -23 61 -33 156 -29 367
-212 563 -488 39 -55 118 -178 175 -273 l104 -172 -542 -1792 c-298 -986 -556
-1820 -572 -1855 -37 -76 -108 -148 -190 -192 -102 -54 -140 -60 -391 -60
l-228 0 0 -30 0 -30 740 0 740 0 0 29 0 30 -229 3 c-215 3 -231 4 -258 24 -46
35 -66 79 -69 158 -4 67 7 108 184 726 l187 655 780 3 780 2 84 -197 c104
-247 242 -535 312 -650 129 -213 322 -424 491 -536 110 -74 270 -149 383 -181
192 -54 232 -58 678 -63 l417 -5 -36 84 c-19 45 -175 414 -346 818 -171 404
-423 1001 -560 1325 -138 325 -322 766 -410 980 -308 749 -368 890 -429 1000
-222 398 -517 641 -889 732 -56 14 -168 17 -790 20 -399 2 -729 1 -733 -3z
m1372 -2198 l428 -1066 -755 0 c-599 0 -753 3 -750 13 3 6 148 487 324 1069
175 581 320 1055 322 1053 2 -2 196 -483 431 -1069z"/>
<path d="M15316 17697 c-44 -150 -193 -285 -366 -328 -80 -20 -364 -17 -515 5
-128 20 -192 37 -402 109 -230 80 -424 103 -778 93 -494 -15 -726 -50 -983
-146 -240 -90 -467 -252 -650 -460 -153 -175 -335 -486 -436 -748 -85 -218
-157 -509 -193 -772 -25 -191 -25 -629 0 -820 78 -579 286 -1097 593 -1476 85
-105 165 -182 287 -278 276 -215 587 -321 1047 -356 214 -17 701 -18 820 -2
453 60 784 228 1100 558 168 177 280 342 377 559 114 252 183 505 183 666 l0
80 -27 -3 c-27 -3 -28 -6 -35 -78 -24 -240 -130 -521 -284 -753 -204 -306
-538 -537 -870 -604 -66 -13 -137 -17 -274 -17 -174 0 -190 1 -275 28 -189 58
-325 145 -477 305 -321 338 -399 769 -385 2111 4 311 11 630 17 710 36 483
118 877 232 1110 41 85 64 118 122 176 137 136 218 162 445 144 312 -25 461
-83 678 -264 229 -191 460 -459 671 -779 188 -284 353 -731 388 -1044 l7 -63
33 0 34 0 0 1195 0 1195 -34 0 c-33 0 -35 -2 -50 -53z"/>
<path d="M28745 23019 c-600 -22 -932 -124 -1265 -389 -428 -341 -736 -962
-847 -1705 -14 -96 -18 -184 -18 -435 0 -336 7 -415 61 -678 105 -515 344
-1005 638 -1311 291 -301 610 -455 1068 -515 357 -47 1338 -47 1696 0 442 57
746 195 1030 468 293 281 533 733 657 1238 76 308 100 540 92 882 -11 483
-107 895 -303 1304 -289 605 -704 960 -1265 1081 -285 61 -883 85 -1544 60z
m796 -91 c98 -50 213 -170 271 -283 131 -255 222 -672 269 -1225 16 -191 23
-1353 10 -1637 -41 -896 -202 -1482 -458 -1672 -125 -93 -133 -95 -358 -99
-258 -5 -293 1 -401 74 -104 69 -167 144 -234 279 -131 265 -218 672 -261
1225 -16 216 -23 1246 -10 1560 24 569 85 958 201 1294 78 225 165 357 297
448 97 66 105 68 369 68 l241 0 64 -32z"/>
<path d="M20970 22940 l0 -30 360 0 360 0 0 -2420 0 -2420 -360 0 -360 0 0
-30 0 -30 1495 0 1495 0 0 30 0 30 -355 0 -355 0 0 1265 c0 1224 1 1265 18
1256 26 -14 30 -20 122 -171 45 -74 146 -227 225 -340 205 -294 276 -405 435
-685 358 -625 602 -939 908 -1170 146 -109 316 -179 496 -204 49 -7 328 -11
757 -11 l679 0 0 23 c0 17 -11 26 -46 41 -126 52 -270 239 -851 1112 -516 773
-664 956 -888 1095 -135 83 -421 186 -675 242 -121 27 -334 57 -403 57 -22 0
-37 3 -33 8 4 4 227 10 494 13 533 7 664 17 866 68 466 118 787 393 877 751
16 64 22 128 26 260 4 153 2 188 -17 280 -45 220 -152 408 -318 561 -186 170
-481 311 -802 382 -296 66 -130 61 -2237 64 l-1913 3 0 -30z m2664 -69 c190
-53 375 -134 499 -221 146 -100 306 -279 378 -422 95 -190 127 -456 99 -841
-19 -268 -72 -421 -184 -533 -151 -151 -351 -194 -903 -194 l-273 0 0 1121 0
1121 153 -5 c115 -3 171 -10 231 -26z"/>
<path d="M25846 17718 c-19 -100 -124 -233 -231 -292 -113 -62 -154 -70 -350
-70 -271 0 -418 25 -665 114 -273 98 -466 119 -917 101 -307 -12 -458 -27
-623 -62 -597 -129 -1027 -524 -1320 -1214 -111 -261 -195 -595 -231 -915 -18
-164 -16 -553 5 -720 70 -568 273 -1093 572 -1477 246 -315 592 -531 983 -613
299 -63 876 -86 1201 -49 414 47 758 216 1060 520 176 177 280 324 386 543
127 264 204 527 207 704 l2 87 -27 3 c-25 3 -27 1 -33 -55 -22 -203 -72 -369
-170 -568 -91 -184 -152 -272 -290 -414 -185 -190 -400 -323 -609 -376 -202
-51 -461 -58 -619 -16 -318 84 -608 354 -730 681 -14 36 -39 121 -56 190 -73
298 -91 569 -91 1390 0 786 13 1029 75 1389 91 525 214 766 454 887 54 28 62
29 186 28 219 -2 410 -41 545 -109 329 -167 815 -722 1040 -1188 43 -89 95
-206 115 -261 69 -186 135 -460 135 -557 0 -39 0 -39 40 -39 l40 0 0 1195 0
1195 -39 0 c-36 0 -39 -2 -45 -32z"/>
<path d="M28450 17569 c-429 -18 -676 -71 -945 -204 -165 -81 -305 -187 -450
-337 -125 -130 -195 -224 -299 -402 -209 -357 -344 -786 -397 -1256 -15 -135
-15 -513 0 -655 71 -660 326 -1277 685 -1653 300 -313 612 -464 1089 -527 277
-36 1138 -44 1517 -15 421 33 693 117 960 296 201 134 348 283 495 504 244
365 400 799 472 1310 25 180 25 633 0 820 -66 491 -225 936 -461 1295 -185
282 -392 473 -666 614 -264 136 -517 191 -980 211 -253 11 -755 11 -1020 -1z
m823 -88 c175 -89 283 -242 375 -533 142 -444 192 -943 192 -1908 0 -964 -50
-1465 -192 -1908 -89 -282 -183 -420 -354 -522 l-58 -35 -252 -3 c-287 -3
-280 -5 -410 90 -256 190 -423 777 -464 1638 -13 266 -12 1216 0 1480 42 859
209 1453 462 1638 136 99 149 101 429 99 l206 -2 66 -34z"/>
<path d="M15553 12070 c-93 -19 -183 -94 -226 -188 -32 -68 -31 -207 1 -277
30 -65 94 -131 157 -161 72 -34 172 -33 242 1 61 31 127 99 156 163 31 67 31
207 0 274 -61 132 -203 213 -330 188z m101 -81 c100 -25 166 -122 166 -242 0
-146 -89 -250 -215 -250 -127 0 -214 101 -215 248 0 119 60 211 157 242 49 15
56 15 107 2z"/>
<path d="M18931 12069 c-89 -17 -174 -88 -214 -178 -13 -29 -22 -75 -25 -126
-5 -102 19 -172 86 -246 102 -113 254 -133 364 -48 l37 29 3 -38 c3 -35 5 -37
41 -40 l38 -3 -3 163 -3 163 -105 0 -105 0 0 -30 0 -30 68 -3 67 -3 0 -49 c0
-46 -2 -51 -45 -84 -159 -121 -359 -10 -358 199 0 39 6 84 12 100 62 158 235
202 348 89 l44 -44 29 21 c35 26 31 37 -33 96 -62 57 -154 81 -246 62z"/>
<path d="M26971 12070 c-23 -5 -62 -21 -86 -35 -102 -59 -114 -217 -21 -274
17 -11 84 -35 149 -54 144 -42 169 -61 165 -126 -4 -66 -36 -86 -136 -85 -63
0 -89 5 -139 28 -35 16 -68 35 -74 43 -10 11 -15 8 -31 -18 -11 -17 -17 -38
-14 -46 9 -22 127 -73 196 -84 110 -17 224 16 267 80 55 80 32 187 -48 234
-24 14 -82 35 -129 47 -104 25 -158 48 -171 71 -27 52 5 119 67 139 64 22 174
-1 225 -47 15 -12 19 -10 37 21 l21 35 -29 21 c-61 44 -170 65 -249 50z"/>
<path d="M17080 11745 l0 -325 40 0 40 0 0 115 0 115 85 0 85 0 75 -115 74
-115 46 0 c25 0 45 2 45 5 0 2 -24 42 -53 87 -29 46 -63 100 -76 120 l-23 38
24 9 c34 13 83 72 98 116 30 91 -16 208 -99 252 -41 21 -56 23 -203 23 l-158
0 0 -325z m328 229 c32 -22 52 -67 52 -114 0 -23 -7 -54 -15 -70 -27 -53 -49
-60 -172 -60 l-113 0 0 130 0 130 113 0 c86 0 118 -4 135 -16z"/>
<path d="M20621 12048 c-5 -13 -63 -155 -130 -317 -67 -162 -121 -298 -121
-303 0 -4 19 -8 43 -8 l42 0 36 93 36 92 138 0 137 0 36 -90 37 -90 44 -3 c41
-3 43 -2 37 20 -3 13 -61 158 -129 323 l-123 300 -37 3 c-31 3 -39 -1 -46 -20z
m104 -230 l53 -133 -54 -3 c-29 -2 -80 -2 -113 0 l-59 3 55 138 c31 76 58 136
61 133 3 -3 28 -65 57 -138z"/>
<path d="M22102 11748 l3 -323 42 -3 43 -3 2 242 3 243 193 -242 c185 -231
195 -242 228 -242 l34 0 0 325 0 325 -40 0 -40 0 -2 -247 -3 -248 -197 248
c-191 238 -199 247 -233 247 l-35 0 2 -322z"/>
<path d="M23860 11744 l0 -325 43 3 42 3 3 323 2 322 -45 0 -45 0 0 -326z"/>
<path d="M25282 12039 c-70 -35 -104 -71 -141 -149 -22 -46 -26 -69 -26 -140
0 -71 4 -94 26 -141 75 -159 222 -226 380 -174 51 17 149 98 149 123 0 11 -50
42 -68 42 -5 0 -14 -11 -20 -24 -6 -14 -32 -37 -58 -52 -101 -59 -223 -25
-289 80 -24 40 -30 62 -34 123 -4 86 14 146 62 200 43 49 83 66 152 66 71 0
111 -18 153 -69 l30 -37 31 22 31 23 -17 30 c-41 70 -121 108 -226 108 -62 0
-83 -5 -135 -31z"/>
</g>
</svg>
