<?xml version="1.0" encoding="UTF-8"?>

<svg xmlns="http://www.w3.org/2000/svg" version="1.1" width="36px" height="36
px" style="shape-rendering:geometricPrecision; text-rendering:geometricPrecision; image-rendering:optimizeQuality; fill-rule:evenodd; clip-rule:evenodd" xmlns:xlink="http://www.w3.org/1999/xlink">

<g><path style="opacity:0.991" fill="#000000" d="M 2881.5,1296.5 C 2921.2,1295.96 2960.87,1296.79 3000.5,1299C 3066.59,1304.82 3115.42,1336.65 3147,1394.5C 3188.8,1475.47 3197.13,1559.81 3172,1647.5C 3159.74,1690.55 3137.91,1727.71 3106.5,1759C 3076.48,1785.02 3041.48,1799.35 3001.5,1802C 2948.83,1805.33 2896.17,1805.33 2843.5,1802C 2779.18,1795.78 2731.34,1764.61 2700,1708.5C 2657.22,1627.07 2648.56,1542.07 2674,1453.5C 2685.17,1416.81 2702.84,1383.81 2727,1354.5C 2758.93,1320.29 2798.43,1301.79 2845.5,1299C 2857.66,1298.21 2869.66,1297.37 2881.5,1296.5 Z M 2900.5,1303.5 C 2940.76,1293.38 2968.93,1307.05 2985,1344.5C 2996.35,1376.56 3003.35,1409.56 3006,1443.5C 3010.67,1514.83 3010.67,1586.17 3006,1657.5C 3003.57,1686.39 2998.24,1714.72 2990,1742.5C 2985.31,1759.06 2977.14,1773.56 2965.5,1786C 2959.66,1790.5 2953.33,1794.16 2946.5,1797C 2906.17,1808.16 2877.67,1794.99 2861,1757.5C 2848.81,1724.57 2841.48,1690.57 2839,1655.5C 2834.33,1585.5 2834.33,1515.5 2839,1445.5C 2841.2,1417.64 2846.2,1390.31 2854,1363.5C 2858.56,1344.88 2867.39,1328.71 2880.5,1315C 2886.61,1310.03 2893.27,1306.19 2900.5,1303.5 Z"/></g>
<g><path style="opacity:0.986" fill="#000000" d="M 1172.5,1302.5 C 1222.53,1302.03 1272.53,1302.53 1322.5,1304C 1350.65,1309.99 1374.15,1323.82 1393,1345.5C 1405,1360.15 1415,1376.15 1423,1393.5C 1478.67,1528.51 1535.17,1663.18 1592.5,1797.5C 1566.17,1798.67 1539.84,1798.83 1513.5,1798C 1474.08,1794.37 1441.25,1777.87 1415,1748.5C 1399.9,1730 1387.57,1709.66 1378,1687.5C 1370.56,1670.95 1363.39,1654.28 1356.5,1637.5C 1304.27,1636.17 1252.1,1636.17 1200,1637.5C 1187.11,1682.23 1174.61,1727.07 1162.5,1772C 1161.97,1782.99 1166.97,1789.65 1177.5,1792C 1191.16,1792.5 1204.83,1792.67 1218.5,1792.5C 1218.5,1794.5 1218.5,1796.5 1218.5,1798.5C 1168.83,1798.5 1119.17,1798.5 1069.5,1798.5C 1069.5,1796.5 1069.5,1794.5 1069.5,1792.5C 1084.5,1792.67 1099.5,1792.5 1114.5,1792C 1132.49,1789.33 1145.32,1779.83 1153,1763.5C 1189.27,1643.24 1225.77,1523.07 1262.5,1403C 1250.53,1380.88 1236.7,1360.04 1221,1340.5C 1212.39,1330.89 1202.89,1322.39 1192.5,1315C 1186.35,1311.23 1179.68,1309.39 1172.5,1309.5C 1172.5,1307.17 1172.5,1304.83 1172.5,1302.5 Z M 1266.5,1417.5 C 1245.86,1488.22 1224.53,1558.72 1202.5,1629C 1252.5,1629.83 1302.5,1629.67 1352.5,1628.5C 1324.39,1559.28 1296.56,1489.95 1269,1420.5C 1268.62,1419.06 1267.79,1418.06 1266.5,1417.5 Z"/></g>
<g><path style="opacity:0.991" fill="#000000" d="M 2096.5,1302.5 C 2222.83,1302.33 2349.17,1302.5 2475.5,1303C 2515.74,1305.74 2552.4,1318.41 2585.5,1341C 2621.19,1372.07 2633.69,1410.9 2623,1457.5C 2620.14,1469.21 2615.14,1479.88 2608,1489.5C 2584.76,1515.87 2555.59,1531.37 2520.5,1536C 2511.2,1537.26 2501.86,1538.26 2492.5,1539C 2462.49,1539.4 2432.49,1540.07 2402.5,1541C 2436.2,1543.51 2468.53,1551.51 2499.5,1565C 2513.65,1571.48 2525.82,1580.64 2536,1592.5C 2544,1602.5 2552,1612.5 2560,1622.5C 2593.17,1672.18 2626.84,1721.51 2661,1770.5C 2666.47,1776.97 2672.3,1783.14 2678.5,1789C 2681.56,1791.03 2684.89,1792.2 2688.5,1792.5C 2688.5,1794.5 2688.5,1796.5 2688.5,1798.5C 2641.17,1798.67 2593.83,1798.5 2546.5,1798C 2529.47,1795.98 2513.8,1790.31 2499.5,1781C 2476.92,1764.42 2457.75,1744.58 2442,1721.5C 2436.25,1712.33 2430.25,1703.33 2424,1694.5C 2401.1,1651.97 2375.43,1611.3 2347,1572.5C 2341.33,1563.17 2335.67,1553.83 2330,1544.5C 2328.65,1542.98 2327.15,1541.65 2325.5,1540.5C 2324.5,1624.5 2324.17,1708.5 2324.5,1792.5C 2348.17,1792.5 2371.83,1792.5 2395.5,1792.5C 2395.5,1794.5 2395.5,1796.5 2395.5,1798.5C 2295.83,1798.5 2196.17,1798.5 2096.5,1798.5C 2096.5,1796.5 2096.5,1794.5 2096.5,1792.5C 2120.17,1792.5 2143.83,1792.5 2167.5,1792.5C 2167.5,1631.17 2167.5,1469.83 2167.5,1308.5C 2143.83,1308.5 2120.17,1308.5 2096.5,1308.5C 2096.5,1306.5 2096.5,1304.5 2096.5,1302.5 Z M 2324.5,1309.5 C 2362.21,1308.57 2395.54,1320.07 2424.5,1344C 2452.22,1369.14 2464.22,1400.47 2460.5,1438C 2461.36,1455.06 2459.86,1471.89 2456,1488.5C 2447.44,1514.73 2429.27,1528.89 2401.5,1531C 2375.88,1533.16 2350.22,1533.99 2324.5,1533.5C 2324.5,1458.83 2324.5,1384.17 2324.5,1309.5 Z"/></g>
<g><path style="opacity:0.987" fill="#000000" d="M 1532.5,1823.5 C 1535.17,1823.5 1537.83,1823.5 1540.5,1823.5C 1540.5,1903.83 1540.5,1984.17 1540.5,2064.5C 1537.83,2064.5 1535.17,2064.5 1532.5,2064.5C 1526.88,2018.61 1510.71,1976.95 1484,1939.5C 1466.34,1914.5 1445.84,1892 1422.5,1872C 1407.68,1859.83 1390.68,1852.5 1371.5,1850C 1342.82,1841.44 1320.65,1849.61 1305,1874.5C 1293.48,1898.93 1286.14,1924.59 1283,1951.5C 1281.27,1964.12 1279.94,1976.79 1279,1989.5C 1275.03,2055.56 1275.7,2121.56 1281,2187.5C 1283.16,2206.8 1287.83,2225.47 1295,2243.5C 1324.27,2298.06 1369.11,2317.56 1429.5,2302C 1465.09,2289.75 1492.25,2267.25 1511,2234.5C 1524.45,2211.98 1531.95,2187.65 1533.5,2161.5C 1535.83,2161.5 1538.17,2161.5 1540.5,2161.5C 1534.84,2233.7 1501.51,2288.87 1440.5,2327C 1408.29,2343.93 1373.96,2351.43 1337.5,2349.5C 1305.09,2350.23 1273.09,2347.06 1241.5,2340C 1208.1,2330.23 1180.27,2312.06 1158,2285.5C 1121.51,2236.72 1101.18,2181.72 1097,2120.5C 1092.44,2057.3 1104.77,1997.63 1134,1941.5C 1165.26,1882.93 1214.09,1850.43 1280.5,1844C 1310.48,1841.32 1340.48,1840.99 1370.5,1843C 1378.98,1843.91 1387.32,1845.58 1395.5,1848C 1425.91,1861.12 1457.57,1866.12 1490.5,1863C 1512.8,1858.53 1526.8,1845.37 1532.5,1823.5 Z"/></g>
<g><path style="opacity:0.988" fill="#000000" d="M 2584.5,1823.5 C 2587.17,1823.5 2589.83,1823.5 2592.5,1823.5C 2592.5,1903.83 2592.5,1984.17 2592.5,2064.5C 2589.83,2064.5 2587.17,2064.5 2584.5,2064.5C 2579.74,2022.05 2565.57,1983.05 2542,1947.5C 2521.19,1915.77 2495.69,1888.27 2465.5,1865C 2440.3,1850.63 2413.3,1845.63 2384.5,1850C 2364.93,1860.58 2352.43,1876.75 2347,1898.5C 2336.1,1937.74 2330.43,1977.74 2330,2018.5C 2329.33,2059.17 2329.33,2099.83 2330,2140.5C 2330.65,2163.68 2332.99,2186.68 2337,2209.5C 2343.15,2245.95 2361.65,2274.11 2392.5,2294C 2424.33,2310.25 2457,2311.92 2490.5,2299C 2526.86,2283.31 2553.36,2257.48 2570,2221.5C 2579.57,2202.62 2584.74,2182.62 2585.5,2161.5C 2587.83,2161.5 2590.17,2161.5 2592.5,2161.5C 2586.77,2236.17 2551.77,2292.34 2487.5,2330C 2456.7,2344.69 2424.2,2351.19 2390,2349.5C 2358.83,2350.11 2328,2347.28 2297.5,2341C 2257.78,2330.06 2225.95,2307.9 2202,2274.5C 2158.27,2207.19 2141.27,2133.53 2151,2053.5C 2157.47,2000.05 2176.47,1951.72 2208,1908.5C 2240.24,1869.46 2281.74,1847.96 2332.5,1844C 2362.48,1841.32 2392.48,1840.99 2422.5,1843C 2441.11,1845.76 2459.11,1850.76 2476.5,1858C 2498.25,1863.36 2520.25,1865.03 2542.5,1863C 2560.73,1859.82 2573.9,1849.98 2582,1833.5C 2583.15,1830.23 2583.98,1826.9 2584.5,1823.5 Z"/></g>
<g><path style="opacity:0.991" fill="#000000" d="M 2851.5,1841.5 C 2881.84,1841.33 2912.17,1841.5 2942.5,1842C 2974.2,1841.58 3004.87,1846.91 3034.5,1858C 3073.44,1875.61 3102.61,1903.44 3122,1941.5C 3162.56,2021.65 3170.56,2104.98 3146,2191.5C 3133.78,2233.13 3112.94,2269.63 3083.5,2301C 3052.68,2328.95 3016.35,2344.29 2974.5,2347C 2922.5,2350.33 2870.5,2350.33 2818.5,2347C 2751.34,2340.8 2702.18,2307.97 2671,2248.5C 2630.55,2167.9 2622.88,2084.23 2648,1997.5C 2658.76,1961.98 2675.76,1929.98 2699,1901.5C 2730.74,1866.71 2770.24,1847.55 2817.5,1844C 2828.99,1843.19 2840.32,1842.36 2851.5,1841.5 Z M 2873.5,1848.5 C 2913.1,1838.06 2941.26,1851.06 2958,1887.5C 2970.06,1920.8 2977.39,1955.13 2980,1990.5C 2984.67,2060.5 2984.67,2130.5 2980,2200.5C 2977.7,2228.66 2972.7,2256.33 2965,2283.5C 2960.7,2300.6 2952.87,2315.76 2941.5,2329C 2935.08,2334.88 2927.75,2339.21 2919.5,2342C 2878.71,2352.52 2850.21,2338.68 2834,2300.5C 2822.53,2268.81 2815.53,2236.15 2813,2202.5C 2808.33,2131.17 2808.33,2059.83 2813,1988.5C 2815.53,1954.85 2822.53,1922.18 2834,1890.5C 2841.28,1870.72 2854.45,1856.72 2873.5,1848.5 Z"/></g>
<g><path style="opacity:0.895" fill="#000000" d="M 1555.5,2391.5 C 1581.69,2393.21 1593.19,2407.21 1590,2433.5C 1583.97,2452.53 1571.14,2460.37 1551.5,2457C 1533.74,2449.33 1526.58,2435.83 1530,2416.5C 1533.8,2403.2 1542.3,2394.86 1555.5,2391.5 Z M 1554.5,2400.5 C 1573.99,2400.83 1582.82,2410.83 1581,2430.5C 1575.74,2447.71 1564.91,2452.88 1548.5,2446C 1537.46,2435.28 1535.63,2423.12 1543,2409.5C 1546.18,2405.46 1550.02,2402.46 1554.5,2400.5 Z"/></g>
<g><path style="opacity:0.887" fill="#000000" d="M 1893.5,2391.5 C 1906.86,2389.77 1916.86,2394.6 1923.5,2406C 1921.64,2408.18 1919.48,2410.01 1917,2411.5C 1908.58,2399.48 1898.08,2397.31 1885.5,2405C 1876.3,2415.98 1875.13,2427.81 1882,2440.5C 1893.64,2452.44 1905.3,2452.44 1917,2440.5C 1917.5,2437.52 1917.66,2434.52 1917.5,2431.5C 1912.83,2431.5 1908.17,2431.5 1903.5,2431.5C 1903.5,2429.17 1903.5,2426.83 1903.5,2424.5C 1910.83,2424.5 1918.17,2424.5 1925.5,2424.5C 1925.5,2435.5 1925.5,2446.5 1925.5,2457.5C 1922.83,2457.5 1920.17,2457.5 1917.5,2457.5C 1917.66,2455.14 1917.5,2452.81 1917,2450.5C 1901.93,2461.97 1887.93,2460.64 1875,2446.5C 1864.39,2429.77 1865.56,2413.94 1878.5,2399C 1883.05,2395.39 1888.05,2392.89 1893.5,2391.5 Z"/></g>
<g><path style="opacity:0.885" fill="#000000" d="M 2536.5,2391.5 C 2549.5,2390 2559.17,2394.83 2565.5,2406C 2563.71,2408.16 2561.54,2410 2559,2411.5C 2553.84,2402.22 2546.01,2398.72 2535.5,2401C 2523.14,2406.88 2517.97,2416.72 2520,2430.5C 2526,2448.76 2537.5,2453.59 2554.5,2445C 2556.46,2442.89 2558.29,2440.73 2560,2438.5C 2562.57,2439.87 2565.07,2441.37 2567.5,2443C 2561.71,2453.15 2552.88,2458.32 2541,2458.5C 2524.83,2457 2514.83,2448.33 2511,2432.5C 2507.9,2411.34 2516.4,2397.67 2536.5,2391.5 Z"/></g>
<g><path style="opacity:0.889" fill="#000000" d="M 2697.5,2391.5 C 2705.6,2390.89 2713.27,2392.39 2720.5,2396C 2722.33,2396.9 2723.66,2398.23 2724.5,2400C 2723.3,2402.23 2721.97,2404.4 2720.5,2406.5C 2711.1,2399.4 2701.27,2398.4 2691,2403.5C 2687.51,2407.88 2687.68,2412.04 2691.5,2416C 2699.62,2419.29 2707.95,2421.96 2716.5,2424C 2726.72,2428.94 2729.89,2436.78 2726,2447.5C 2723.67,2452.42 2719.84,2455.59 2714.5,2457C 2700.34,2460.34 2687.68,2457.5 2676.5,2448.5C 2677.81,2445.86 2679.48,2443.53 2681.5,2441.5C 2689.95,2448.53 2699.61,2451.03 2710.5,2449C 2717.69,2446.38 2719.36,2441.71 2715.5,2435C 2713.83,2434 2712.17,2433 2710.5,2432C 2701.96,2429.93 2693.63,2427.26 2685.5,2424C 2679.74,2418.76 2677.91,2412.26 2680,2404.5C 2683.65,2397.1 2689.49,2392.77 2697.5,2391.5 Z"/></g>
<g><path style="opacity:0.914" fill="#000000" d="M 1706.5,2392.5 C 1718.17,2392.33 1729.84,2392.5 1741.5,2393C 1755.11,2401.09 1758.27,2412.26 1751,2426.5C 1748.6,2429.4 1745.77,2431.73 1742.5,2433.5C 1747.38,2441.42 1752.38,2449.25 1757.5,2457C 1753.83,2457.67 1750.17,2457.67 1746.5,2457C 1741.58,2449.84 1736.92,2442.5 1732.5,2435C 1726.84,2434.5 1721.18,2434.33 1715.5,2434.5C 1715.5,2442.17 1715.5,2449.83 1715.5,2457.5C 1712.5,2457.5 1709.5,2457.5 1706.5,2457.5C 1706.5,2435.83 1706.5,2414.17 1706.5,2392.5 Z M 1715.5,2400.5 C 1722.84,2400.33 1730.17,2400.5 1737.5,2401C 1747.32,2408.21 1747.98,2416.21 1739.5,2425C 1731.59,2426.4 1723.59,2426.9 1715.5,2426.5C 1715.5,2417.83 1715.5,2409.17 1715.5,2400.5 Z"/></g>
<g><path style="opacity:0.901" fill="#000000" d="M 2061.5,2392.5 C 2064.57,2392.18 2067.57,2392.52 2070.5,2393.5C 2079.17,2414.5 2087.83,2435.5 2096.5,2456.5C 2093.17,2457.83 2089.83,2457.83 2086.5,2456.5C 2083.59,2450.69 2081.26,2444.69 2079.5,2438.5C 2070.5,2438.5 2061.5,2438.5 2052.5,2438.5C 2050.63,2444.58 2048.47,2450.58 2046,2456.5C 2042.54,2457.79 2039.04,2457.79 2035.5,2456.5C 2044.73,2435.37 2053.4,2414.04 2061.5,2392.5 Z M 2065.5,2404.5 C 2069.53,2412.9 2073.2,2421.57 2076.5,2430.5C 2069.53,2431.5 2062.53,2431.83 2055.5,2431.5C 2058.55,2422.4 2061.88,2413.4 2065.5,2404.5 Z"/></g>
<g><path style="opacity:0.897" fill="#000000" d="M 2209.5,2392.5 C 2213.6,2391.77 2217.1,2392.77 2220,2395.5C 2231.29,2410.45 2242.95,2425.12 2255,2439.5C 2255.5,2423.84 2255.67,2408.17 2255.5,2392.5C 2258.83,2392.5 2262.17,2392.5 2265.5,2392.5C 2265.5,2414.17 2265.5,2435.83 2265.5,2457.5C 2262.22,2457.78 2259.06,2457.45 2256,2456.5C 2243.67,2440.83 2231.33,2425.17 2219,2409.5C 2218.5,2425.5 2218.33,2441.5 2218.5,2457.5C 2215.5,2457.5 2212.5,2457.5 2209.5,2457.5C 2209.5,2435.83 2209.5,2414.17 2209.5,2392.5 Z"/></g>
<g><path style="opacity:0.941" fill="#000000" d="M 2385.5,2392.5 C 2388.5,2392.5 2391.5,2392.5 2394.5,2392.5C 2394.5,2414.17 2394.5,2435.83 2394.5,2457.5C 2391.5,2457.5 2388.5,2457.5 2385.5,2457.5C 2385.5,2435.83 2385.5,2414.17 2385.5,2392.5 Z"/></g>
</svg>
