
<svg xmlns="http://www.w3.org/2000/svg" version="1.1" width="274px" height="346px" style="shape-rendering:geometricPrecision; text-rendering:geometricPrecision; image-rendering:optimizeQuality; fill-rule:evenodd; clip-rule:evenodd" xmlns:xlink="http://www.w3.org/1999/xlink">
<g><path style="opacity:1" fill="#fff" d="M 109.5,25.5 C 112.119,25.2317 114.619,25.565 117,26.5C 121.251,42.2625 127.251,57.2625 135,71.5C 141.701,78.0993 149.201,83.5993 157.5,88C 174.726,102.31 188.226,119.477 198,139.5C 198.833,140.333 199.667,141.167 200.5,142C 220.052,143.692 236.219,151.859 249,166.5C 250.404,168.394 251.57,170.394 252.5,172.5C 238.288,181.209 226.454,192.543 217,206.5C 207.605,217.902 196.438,227.068 183.5,234C 173.014,235.354 162.681,237.354 152.5,240C 146.176,244.118 141.343,249.618 138,256.5C 134.528,269.388 131.528,282.388 129,295.5C 127.973,298.754 126.473,301.754 124.5,304.5C 122.833,305.833 121.167,305.833 119.5,304.5C 115.954,297.167 112.621,289.834 109.5,282.5C 105.815,289.889 103.649,297.889 103,306.5C 101.2,308.831 99.2002,308.831 97,306.5C 91.1215,294.904 88.7882,282.571 90,269.5C 91.7229,253.544 95.7229,238.211 102,223.5C 105.779,217.388 109.945,211.555 114.5,206C 104.181,198.173 93.5144,190.839 82.5,184C 49.5013,151.33 37.6679,112.163 47,66.5C 51.3665,56.7671 57.8665,48.7671 66.5,42.5C 75.218,46.7053 76.718,52.7053 71,60.5C 71.9624,83.5859 81.7958,102.086 100.5,116C 104.385,117.853 108.385,119.52 112.5,121C 115.053,121.851 117.386,121.518 119.5,120C 109.748,98.0641 104.082,75.0641 102.5,51C 102.683,41.7506 105.017,33.2506 109.5,25.5 Z"/></g>
<g><path style="opacity:1" fill="#fff" d="M 44.5,297.5 C 51.9369,305.438 59.6035,313.272 67.5,321C 67.1667,321.333 66.8333,321.667 66.5,322C 58.9201,322.813 51.4201,322.647 44,321.5C 43.2302,313.452 43.3968,305.452 44.5,297.5 Z"/></g>
</svg>
    